<svg width="96" height="96" xmlns="http://www.w3.org/2000/svg" xmlns:xlink="http://www.w3.org/1999/xlink" xml:space="preserve" overflow="hidden"><g transform="translate(-795 -52)"><path d="M809 128 877 128 877 134 809 134Z" fill="#FFFFFF"/><path d="M809 66 817 66 817 124 809 124Z" fill="#FFFFFF"/><path d="M859 116 877 116 877 124 859 124Z" fill="#FFFFFF"/><path d="M859 82 877 82 877 112 859 112Z" fill="#FFFFFF"/><path d="M859 70 877 70 877 78 859 78Z" fill="#FFFFFF"/><path d="M847 88C845.9 88 845 87.1 845 86 845 84.9 845.9 84 847 84 848.1 84 849 84.9 849 86 849 87.1 848.1 88 847 88ZM847 120C845.9 120 845 119.1 845 118 845 116.9 845.9 116 847 116 848.1 116 849 116.9 849 118 849 119.1 848.1 120 847 120ZM855 80 839 80 839 124 855 124 855 80Z" fill="#FFFFFF"/><path d="M831 82 825 82 825 76 831 76 831 82ZM835 72 821 72 821 124 835 124 835 72Z" fill="#FFFFFF"/></g></svg>